<svg width="23" height="23" viewBox="0 0 23 23" fill="none" xmlns="http://www.w3.org/2000/svg">
<rect width="23" height="23" rx="4" fill="url(#paint0_linear_175_6767)"/>
<path d="M4.86364 16.4091H12.0273V15.8273H7.73636C7.63636 15.8273 7.55455 15.7455 7.55455 15.6455V9.90914H4.86364V16.4091ZM12.0273 16.7728H4.86364V17.8364H12.0273V16.7728ZM7.91818 14.0364H15.0818V13.4546H10.7909C10.6909 13.4546 10.6091 13.3728 10.6091 13.2728V7.53641H7.91818V14.0364ZM15.0818 14.4H7.91818V15.4637C10.3061 15.4637 12.6939 15.4637 15.0818 15.4637V14.4ZM10.9727 11.6637H18.1364V5.16369H10.9727V11.6637ZM18.1364 12.0273H10.9727V13.091C13.3606 13.091 15.7485 13.091 18.1364 13.091V12.0273ZM13.5727 6.31823C13.5727 6.21823 13.6545 6.13641 13.7545 6.13641C13.8545 6.13641 13.9364 6.21823 13.9364 6.31823V7.77278C13.9364 7.87278 13.8545 7.95459 13.7545 7.95459C13.6545 7.95459 13.5727 7.87278 13.5727 7.77278V6.31823ZM12.8 6.31823C12.8 6.21823 12.8818 6.13641 12.9818 6.13641C13.0818 6.13641 13.1636 6.21823 13.1636 6.31823V7.77278C13.1636 7.87278 13.0818 7.95459 12.9818 7.95459C12.8818 7.95459 12.8 7.87278 12.8 7.77278V6.31823ZM12.0273 6.31823C12.0273 6.21823 12.1091 6.13641 12.2091 6.13641C12.3091 6.13641 12.3909 6.21823 12.3909 6.31823V7.77278C12.3909 7.87278 12.3091 7.95459 12.2091 7.95459C12.1091 7.95459 12.0273 7.87278 12.0273 7.77278V6.31823ZM10.7909 4.80005H18.3182C18.4182 4.80005 18.5 4.88187 18.5 4.98187V13.2728C18.5 13.3728 18.4182 13.4546 18.3182 13.4546H15.4455V15.6455C15.4455 15.7455 15.3636 15.8273 15.2636 15.8273H12.3909V18.0182C12.3909 18.1182 12.3091 18.2 12.2091 18.2H4.68182C4.58182 18.2 4.5 18.1182 4.5 18.0182V9.72732C4.5 9.62732 4.58182 9.5455 4.68182 9.5455H7.55455V7.35459C7.55455 7.25459 7.63636 7.17278 7.73636 7.17278H10.6091V4.98187C10.6091 4.88187 10.6909 4.80005 10.7909 4.80005ZM9.74545 8.69096C9.74545 8.59096 9.82727 8.50914 9.92727 8.50914C10.0273 8.50914 10.1091 8.59096 10.1091 8.69096V10.1455C10.1091 10.2455 10.0273 10.3273 9.92727 10.3273C9.82727 10.3273 9.74545 10.2455 9.74545 10.1455V8.69096ZM8.97273 8.69096C8.97273 8.59096 9.05455 8.50914 9.15455 8.50914C9.25455 8.50914 9.33636 8.59096 9.33636 8.69096V10.1455C9.33636 10.2455 9.25455 10.3273 9.15455 10.3273C9.05455 10.3273 8.97273 10.2455 8.97273 10.1455V8.69096ZM5.91818 11.0637C5.91818 10.9637 6 10.8819 6.1 10.8819C6.2 10.8819 6.28182 10.9637 6.28182 11.0637V12.5182C6.28182 12.6182 6.2 12.7 6.1 12.7C6 12.7 5.91818 12.6182 5.91818 12.5182V11.0637Z" fill="white" stroke="white" stroke-width="0.2"/>
<defs>
<linearGradient id="paint0_linear_175_6767" x1="11.5" y1="0" x2="11.5" y2="23" gradientUnits="userSpaceOnUse">
<stop stop-color="#1249EC" stop-opacity="0.13"/>
<stop offset="1" stop-color="#2C3546" stop-opacity="0.31"/>
</linearGradient>
</defs>
</svg>
