<svg width="23" height="23" viewBox="0 0 23 23" fill="none" xmlns="http://www.w3.org/2000/svg">
<rect width="23" height="23" rx="4" fill="url(#paint0_linear_175_6723)"/>
<path d="M6.17837 17.859H9.44687C9.5442 17.859 9.62246 17.7808 9.62246 17.6841C9.62246 17.5868 9.54421 17.5085 9.44687 17.5085H7.59881C7.69548 17.3447 7.74809 17.1586 7.75138 16.9686C7.77966 15.988 6.66034 14.9096 6.613 14.8641C6.58012 14.8306 6.5354 14.8122 6.4887 14.8122C6.44201 14.8122 6.39663 14.8306 6.36375 14.8641C6.29601 14.9325 6.29601 15.043 6.36375 15.1114C6.37427 15.1219 7.41598 16.1268 7.39297 16.9529H7.39363C7.38968 17.1633 7.29893 17.3626 7.1424 17.5033H6.17829C5.44435 17.5027 4.8505 16.9075 4.8505 16.1742V14.8379C4.8505 14.4091 5.05767 14.0066 5.40622 13.7574L7.11606 12.5473C7.38767 13.3601 8.14856 13.9086 9.00621 13.9086C9.86311 13.9086 10.624 13.3601 10.8957 12.5473L11.7901 13.1859C11.5474 13.3661 11.3751 13.6252 11.3028 13.9185L10.7293 16.2511C10.634 16.6398 10.7227 17.0515 10.9694 17.3665C11.2166 17.6815 11.5948 17.8656 11.9953 17.8663H15.5571C16.1575 17.8669 16.681 17.4572 16.823 16.8739L17.3965 14.54V14.5393C17.4912 14.1506 17.4024 13.7403 17.1551 13.4253C16.9085 13.1109 16.5304 12.9268 16.1305 12.9261H12.5654C12.4174 12.9261 12.2701 12.9511 12.13 12.9998L10.799 12.0475C10.5149 11.843 10.1729 11.7331 9.82235 11.7338H8.16838C7.81851 11.7331 7.47718 11.843 7.19374 12.0475L5.20106 13.4713C4.76175 13.7876 4.50066 14.296 4.5 14.8379V16.1795C4.50066 17.1061 5.25108 17.857 6.17837 17.859ZM12.5655 13.2699H16.1307C16.4233 13.2693 16.6995 13.4034 16.8804 13.6336C17.0612 13.8638 17.1263 14.1643 17.0566 14.4484L16.4832 16.7824C16.3793 17.2092 15.9965 17.5097 15.5572 17.5084H11.9921C11.6994 17.5084 11.4232 17.3736 11.2424 17.1434C11.0622 16.9126 10.9977 16.6121 11.0674 16.3279L11.6409 13.994C11.7448 13.5679 12.1269 13.2686 12.5655 13.2699ZM8.16853 12.0842H9.82581C10.0981 12.0842 10.3631 12.1684 10.5854 12.3242C10.398 13.0477 9.74491 13.5521 8.99848 13.5521C8.25139 13.5521 7.59901 13.0477 7.41092 12.3242C7.63255 12.1684 7.89757 12.0842 8.16853 12.0842ZM14.061 16.5543C14.5339 16.5582 14.9614 16.2761 15.1448 15.8407C15.3283 15.4054 15.2303 14.9023 14.8976 14.5669C14.5648 14.2315 14.0624 14.1302 13.6257 14.3097C13.189 14.4899 12.9036 14.9161 12.9036 15.3883C12.9036 16.0288 13.4205 16.5496 14.061 16.5543ZM14.061 14.5727C14.3918 14.5694 14.6917 14.7654 14.8206 15.0699C14.9502 15.3744 14.8824 15.7269 14.6496 15.9616C14.4175 16.1964 14.0656 16.2681 13.7598 16.1425C13.454 16.0169 13.2548 15.719 13.2548 15.3882C13.2548 14.941 13.6145 14.5773 14.061 14.5727ZM5.97988 10.1974C6.38828 10.1954 6.75985 9.9633 6.94135 9.59764C7.32082 10.3868 8.1192 10.8893 8.99582 10.8893C9.8718 10.8893 10.6702 10.3868 11.0503 9.59764C11.2739 10.0455 11.7757 10.2803 12.263 10.1659C12.7503 10.0514 13.0956 9.61738 13.0969 9.1169V8.06467C13.0962 7.48528 12.6378 7.00981 12.0584 6.9881C11.6665 6.23839 11.0135 5.65901 10.223 5.35845C9.43252 5.05858 8.55917 5.05858 7.7687 5.35845C6.97755 5.65901 6.32451 6.23839 5.93259 6.9881C5.35386 7.01046 4.89615 7.48528 4.89482 8.06467V9.1169C4.89482 9.40429 5.0099 9.67918 5.21311 9.88241C5.41698 10.085 5.69315 10.1981 5.97988 10.1974ZM9.00173 10.5302C8.21649 10.5309 7.50821 10.0587 7.20704 9.33327C6.90583 8.60789 7.07156 7.77268 7.62662 7.21702C8.18168 6.6613 9.01688 6.49492 9.7422 6.79547C10.4682 7.09602 10.9411 7.80364 10.9411 8.58881C10.9404 9.66012 10.0731 10.5283 9.00173 10.5302ZM12.7511 8.06138V9.11362C12.7511 9.51609 12.4249 9.84294 12.0217 9.84294C11.6186 9.84294 11.2924 9.51609 11.2924 9.11362V8.06138C11.2924 7.65825 11.6186 7.3314 12.0217 7.3314C12.4249 7.3314 12.7511 7.65825 12.7511 8.06138ZM9.00173 5.48147C9.54692 5.48081 10.0822 5.62418 10.5544 5.89644C11.0266 6.16936 11.4179 6.56132 11.6902 7.03351C11.414 7.12492 11.1858 7.32288 11.0556 7.58264C10.6755 6.79281 9.87707 6.29102 9.00111 6.29102C8.12447 6.29102 7.32609 6.79281 6.94664 7.58264C6.81708 7.32155 6.58822 7.12425 6.31136 7.03351C6.58363 6.56066 6.97558 6.16871 7.44843 5.89644C7.92062 5.62352 8.45654 5.4808 9.00173 5.48147ZM5.25056 8.06138C5.25056 7.65825 5.57741 7.3314 5.97988 7.3314C6.38301 7.3314 6.70986 7.65825 6.70986 8.06138V9.11362C6.70986 9.51609 6.38301 9.84294 5.97988 9.84294C5.57741 9.84294 5.25056 9.51609 5.25056 9.11362V8.06138ZM16.1938 6.77437V6.77372C15.2586 6.77306 14.4156 7.33667 14.059 8.20147C13.7032 9.06562 13.9038 10.06 14.568 10.7182C14.4207 10.976 14.2155 11.1964 13.9683 11.3614C13.844 11.4213 13.769 11.5521 13.7808 11.6896C13.7966 11.7895 13.8736 11.9244 14.1577 12.0033C14.3208 12.046 14.4891 12.0664 14.6575 12.0651C15.2901 12.0783 15.9011 11.833 16.3483 11.3844C17.5886 11.3003 18.5396 10.2493 18.4987 9.00639C18.4586 7.76344 17.4406 6.77632 16.1969 6.77363L16.1938 6.77437ZM16.255 11.0379V11.0372C16.205 11.0385 16.1576 11.0615 16.1254 11.1003C15.6802 11.6442 14.9344 11.7054 14.7226 11.7126C14.5444 11.7225 14.3662 11.6988 14.1965 11.6442C14.5188 11.4193 14.7812 11.1181 14.9594 10.7669C14.9995 10.6952 14.9844 10.6045 14.9226 10.5499C14.2163 9.93038 14.0499 8.89656 14.526 8.08698C15.0028 7.27742 15.9879 6.92163 16.8719 7.23861C17.7558 7.55625 18.2898 8.45723 18.1425 9.38517C17.9958 10.3124 17.2099 11.005 16.2708 11.0339L16.255 11.0379ZM17.6702 9.02415C17.6709 9.22014 17.6288 9.41413 17.5459 9.59236C17.517 9.65286 17.4558 9.69166 17.3881 9.69232C17.3624 9.69232 17.3361 9.68706 17.3124 9.67654C17.225 9.63511 17.1875 9.53054 17.2283 9.44307C17.4387 8.98733 17.275 8.44674 16.8481 8.18368C16.808 8.15934 16.7798 8.12054 16.7686 8.07517C16.758 8.02979 16.7653 7.98178 16.7903 7.94166C16.8409 7.86011 16.9481 7.83381 17.0303 7.88379C17.4289 8.12515 17.6722 8.55788 17.6702 9.02415Z" fill="white"/>
<path d="M9.00173 10.5309V10.5302M9.00173 10.5302C8.21649 10.5309 7.50821 10.0587 7.20704 9.33327C6.90583 8.60789 7.07156 7.77268 7.62662 7.21702C8.18168 6.6613 9.01688 6.49492 9.7422 6.79547C10.4682 7.09602 10.9411 7.80364 10.9411 8.58881C10.9404 9.66012 10.0731 10.5283 9.00173 10.5302ZM17.6702 9.02481V9.02415M17.6702 9.02415C17.6709 9.22014 17.6288 9.41413 17.5459 9.59236C17.517 9.65286 17.4558 9.69166 17.3881 9.69232C17.3624 9.69232 17.3361 9.68706 17.3124 9.67654C17.225 9.63511 17.1875 9.53054 17.2283 9.44307C17.4387 8.98733 17.275 8.44674 16.8481 8.18368C16.808 8.15934 16.7798 8.12054 16.7686 8.07517C16.758 8.02979 16.7653 7.98178 16.7903 7.94166C16.8409 7.86011 16.9481 7.83381 17.0303 7.88379C17.4289 8.12515 17.6722 8.55788 17.6702 9.02415ZM6.17837 17.859H9.44687C9.5442 17.859 9.62246 17.7808 9.62246 17.6841C9.62246 17.5868 9.54421 17.5085 9.44687 17.5085H7.59881C7.69548 17.3447 7.74809 17.1586 7.75138 16.9686C7.77966 15.988 6.66034 14.9096 6.613 14.8641C6.58012 14.8306 6.5354 14.8121 6.4887 14.8121C6.44201 14.8121 6.39663 14.8306 6.36375 14.8641C6.29601 14.9325 6.29601 15.043 6.36375 15.1114C6.37427 15.1219 7.41598 16.1268 7.39297 16.9529H7.39363C7.38968 17.1633 7.29893 17.3626 7.1424 17.5033H6.17829C5.44435 17.5027 4.8505 16.9075 4.8505 16.1742V14.8379C4.8505 14.4091 5.05767 14.0066 5.40622 13.7574L7.11606 12.5473C7.38767 13.3601 8.14856 13.9086 9.00621 13.9086C9.86311 13.9086 10.624 13.3601 10.8957 12.5473L11.7901 13.1859C11.5474 13.3661 11.3751 13.6252 11.3028 13.9185L10.7293 16.2511C10.634 16.6398 10.7227 17.0515 10.9694 17.3665C11.2166 17.6815 11.5948 17.8656 11.9953 17.8663H15.5571C16.1575 17.8669 16.681 17.4572 16.823 16.8739L17.3965 14.54V14.5393C17.4912 14.1506 17.4024 13.7403 17.1551 13.4253C16.9085 13.1109 16.5304 12.9268 16.1305 12.9261H12.5654C12.4174 12.9261 12.2701 12.9511 12.13 12.9998L10.799 12.0475C10.5149 11.843 10.1729 11.7331 9.82235 11.7338H8.16838C7.81851 11.7331 7.47718 11.843 7.19374 12.0475L5.20106 13.4713C4.76175 13.7876 4.50066 14.296 4.5 14.8379V16.1795C4.50066 17.1061 5.25108 17.857 6.17837 17.859ZM12.5655 13.2699H16.1307C16.4233 13.2693 16.6995 13.4034 16.8804 13.6336C17.0612 13.8638 17.1263 14.1643 17.0566 14.4484L16.4832 16.7824C16.3793 17.2092 15.9965 17.5097 15.5572 17.5084H11.9921C11.6994 17.5084 11.4232 17.3736 11.2424 17.1434C11.0622 16.9126 10.9977 16.6121 11.0674 16.3279L11.6409 13.994C11.7448 13.5679 12.1269 13.2686 12.5655 13.2699ZM8.16853 12.0842H9.82581C10.0981 12.0842 10.3631 12.1684 10.5854 12.3242C10.398 13.0477 9.74491 13.5521 8.99848 13.5521C8.25139 13.5521 7.59901 13.0477 7.41092 12.3242C7.63255 12.1684 7.89757 12.0842 8.16853 12.0842ZM14.061 16.5543C14.5339 16.5582 14.9614 16.2761 15.1448 15.8407C15.3283 15.4054 15.2303 14.9023 14.8976 14.5669C14.5648 14.2314 14.0624 14.1302 13.6257 14.3097C13.189 14.4899 12.9036 14.9161 12.9036 15.3883C12.9036 16.0288 13.4205 16.5496 14.061 16.5543ZM14.061 14.5727C14.3918 14.5694 14.6917 14.7654 14.8206 15.0699C14.9502 15.3744 14.8824 15.7269 14.6496 15.9616C14.4175 16.1964 14.0656 16.2681 13.7598 16.1425C13.454 16.0169 13.2548 15.719 13.2548 15.3882C13.2548 14.941 13.6145 14.5773 14.061 14.5727ZM5.97988 10.1974C6.38828 10.1954 6.75985 9.9633 6.94135 9.59764C7.32082 10.3868 8.1192 10.8893 8.99582 10.8893C9.8718 10.8893 10.6702 10.3868 11.0503 9.59764C11.2739 10.0455 11.7757 10.2803 12.263 10.1659C12.7503 10.0514 13.0956 9.61738 13.0969 9.1169V8.06467C13.0962 7.48528 12.6378 7.00981 12.0584 6.9881C11.6665 6.23839 11.0135 5.65901 10.223 5.35845C9.43252 5.05858 8.55917 5.05858 7.7687 5.35845C6.97755 5.65901 6.32451 6.23839 5.93259 6.9881C5.35386 7.01046 4.89615 7.48528 4.89482 8.06467V9.1169C4.89482 9.40429 5.0099 9.67918 5.21311 9.88241C5.41698 10.085 5.69315 10.1981 5.97988 10.1974ZM12.7511 8.06138V9.11362C12.7511 9.51609 12.4249 9.84294 12.0217 9.84294C11.6186 9.84294 11.2924 9.51609 11.2924 9.11362V8.06138C11.2924 7.65825 11.6186 7.3314 12.0217 7.3314C12.4249 7.3314 12.7511 7.65825 12.7511 8.06138ZM9.00173 5.48147C9.54692 5.48081 10.0822 5.62418 10.5544 5.89644C11.0266 6.16936 11.4179 6.56132 11.6902 7.03351C11.414 7.12492 11.1858 7.32288 11.0556 7.58264C10.6755 6.79281 9.87707 6.29102 9.00111 6.29102C8.12447 6.29102 7.32609 6.79281 6.94664 7.58264C6.81708 7.32155 6.58822 7.12425 6.31136 7.03351C6.58363 6.56066 6.97558 6.16871 7.44843 5.89644C7.92062 5.62352 8.45654 5.4808 9.00173 5.48147ZM5.25056 8.06138C5.25056 7.65825 5.57741 7.3314 5.97988 7.3314C6.38301 7.3314 6.70986 7.65825 6.70986 8.06138V9.11362C6.70986 9.51609 6.38301 9.84294 5.97988 9.84294C5.57741 9.84294 5.25056 9.51609 5.25056 9.11362V8.06138ZM16.1938 6.77437V6.77372C15.2586 6.77306 14.4156 7.33667 14.059 8.20147C13.7032 9.06562 13.9038 10.06 14.568 10.7182C14.4207 10.976 14.2155 11.1964 13.9683 11.3614C13.844 11.4213 13.769 11.5521 13.7808 11.6896C13.7966 11.7895 13.8736 11.9244 14.1577 12.0033C14.3208 12.046 14.4891 12.0664 14.6575 12.0651C15.2901 12.0783 15.9011 11.833 16.3483 11.3844C17.5886 11.3003 18.5396 10.2493 18.4987 9.00639C18.4586 7.76344 17.4406 6.77632 16.1969 6.77363L16.1938 6.77437ZM16.255 11.0379V11.0372C16.205 11.0385 16.1576 11.0615 16.1254 11.1003C15.6802 11.6442 14.9344 11.7054 14.7226 11.7126C14.5444 11.7225 14.3662 11.6988 14.1965 11.6442C14.5188 11.4193 14.7812 11.1181 14.9594 10.7669C14.9995 10.6952 14.9844 10.6045 14.9226 10.5499C14.2163 9.93038 14.0499 8.89656 14.526 8.08698C15.0028 7.27742 15.9879 6.92163 16.8719 7.23861C17.7558 7.55625 18.2898 8.45723 18.1425 9.38517C17.9958 10.3124 17.2099 11.005 16.2708 11.0339L16.255 11.0379Z" stroke="white" stroke-width="0.2"/>
<defs>
<linearGradient id="paint0_linear_175_6723" x1="11.5" y1="0" x2="11.5" y2="23" gradientUnits="userSpaceOnUse">
<stop stop-color="#1249EC" stop-opacity="0.13"/>
<stop offset="1" stop-color="#2C3546" stop-opacity="0.31"/>
</linearGradient>
</defs>
</svg>
