<svg width="17" height="17" viewBox="0 0 17 17" fill="none" xmlns="http://www.w3.org/2000/svg">
<path d="M10.99 14.6667V13.3333C10.99 12.6261 10.7091 11.9478 10.209 11.4477C9.70887 10.9476 9.03059 10.6667 8.32334 10.6667H4.32334C3.6161 10.6667 2.93782 10.9476 2.43773 11.4477C1.93763 11.9478 1.65668 12.6261 1.65668 13.3333V14.6667" stroke="#156BF4" stroke-width="1.33333" stroke-linecap="round" stroke-linejoin="round"/>
<path d="M6.32334 7.99999C7.7961 7.99999 8.99001 6.80608 8.99001 5.33332C8.99001 3.86056 7.7961 2.66666 6.32334 2.66666C4.85058 2.66666 3.65668 3.86056 3.65668 5.33332C3.65668 6.80608 4.85058 7.99999 6.32334 7.99999Z" stroke="#156BF4" stroke-width="1.33333" stroke-linecap="round" stroke-linejoin="round"/>
<path d="M14.9901 14.6669V13.3336C14.9896 12.7427 14.793 12.1688 14.431 11.7018C14.069 11.2348 13.5621 10.9013 12.9901 10.7536" stroke="#156BF4" stroke-width="1.33333" stroke-linecap="round" stroke-linejoin="round"/>
<path d="M10.9901 2.75357C11.5637 2.90044 12.0721 3.23404 12.4351 3.70178C12.7982 4.16952 12.9953 4.74479 12.9953 5.3369C12.9953 5.92902 12.7982 6.50429 12.4351 6.97203C12.0721 7.43977 11.5637 7.77337 10.9901 7.92024" stroke="#156BF4" stroke-width="1.33333" stroke-linecap="round" stroke-linejoin="round"/>
</svg>
