<svg width="23" height="23" viewBox="0 0 23 23" fill="none" xmlns="http://www.w3.org/2000/svg">
<rect width="23" height="23" rx="4" fill="url(#paint0_linear_175_6734)"/>
<path d="M14.8851 8.98438C14.7648 8.98438 14.6664 8.88594 14.6664 8.76562V6.6875C14.6664 5.725 13.8789 4.9375 12.9164 4.9375H8.97888C8.61794 4.9375 8.32263 5.23281 8.32263 5.59375V8.76562C8.32263 8.88594 8.22419 8.98438 8.10388 8.98438C7.98357 8.98438 7.88513 8.88594 7.88513 8.76562V5.59375C7.88513 4.99219 8.37732 4.5 8.97888 4.5H12.9164C14.1195 4.5 15.1039 5.48438 15.1039 6.6875V8.76562C15.1039 8.88594 15.0054 8.98438 14.8851 8.98438Z" fill="white" stroke="white" stroke-width="0.2"/>
<path d="M14.8851 6.90625H14.1195C13.332 6.90625 12.6976 6.27188 12.6976 5.48438V4.71875C12.6976 4.59844 12.7961 4.5 12.9164 4.5C13.0367 4.5 13.1351 4.59844 13.1351 4.71875V5.48438C13.1351 6.03125 13.5726 6.46875 14.1195 6.46875H14.8851C15.0054 6.46875 15.1039 6.56719 15.1039 6.6875C15.1039 6.80781 15.0054 6.90625 14.8851 6.90625Z" fill="white" stroke="white" stroke-width="0.2"/>
<path d="M6.46326 10.8438C6.34294 10.8438 6.24451 10.7453 6.24451 10.625V8.65625C6.24451 7.69375 7.03201 6.90625 7.99451 6.90625C8.11482 6.90625 8.21326 7.00469 8.21326 7.125C8.21326 7.24531 8.11482 7.34375 7.99451 7.34375C7.27263 7.34375 6.68201 7.93438 6.68201 8.65625V10.625C6.68201 10.7453 6.58357 10.8438 6.46326 10.8438Z" fill="white" stroke="white" stroke-width="0.2"/>
<path d="M16.5258 10.8438C16.4054 10.8438 16.307 10.7453 16.307 10.625V8.65625C16.307 7.93438 15.7164 7.34375 14.9945 7.34375C14.8742 7.34375 14.7758 7.24531 14.7758 7.125C14.7758 7.00469 14.8742 6.90625 14.9945 6.90625C15.957 6.90625 16.7445 7.69375 16.7445 8.65625V10.625C16.7445 10.7453 16.6461 10.8438 16.5258 10.8438Z" fill="white" stroke="white" stroke-width="0.2"/>
<path d="M11.4946 11.5C10.8711 11.5 10.2914 11.2594 9.84299 10.8219L6.75862 7.72661C6.67112 7.63911 6.67112 7.50786 6.75862 7.42036C6.84612 7.33286 6.97737 7.33286 7.06487 7.42036L10.1492 10.5047C10.5102 10.8657 10.9914 11.0625 11.4946 11.0625C11.9977 11.0625 12.4789 10.8657 12.8289 10.5047L15.9133 7.42036C16.0008 7.33286 16.1321 7.33286 16.2196 7.42036C16.3071 7.50786 16.3071 7.63911 16.2196 7.72661L13.1352 10.811C12.6977 11.2594 12.118 11.5 11.4946 11.5Z" fill="white" stroke="white" stroke-width="0.2"/>
<path d="M13.7914 8.875H9.19763C9.07732 8.875 8.97888 8.77656 8.97888 8.65625C8.97888 8.53594 9.07732 8.4375 9.19763 8.4375H13.7914C13.9117 8.4375 14.0101 8.53594 14.0101 8.65625C14.0101 8.77656 13.9117 8.875 13.7914 8.875Z" fill="white" stroke="white" stroke-width="0.2"/>
<path d="M12.4789 7.34375H9.19763C9.07732 7.34375 8.97888 7.24531 8.97888 7.125C8.97888 7.00469 9.07732 6.90625 9.19763 6.90625H12.4789C12.5992 6.90625 12.6976 7.00469 12.6976 7.125C12.6976 7.24531 12.5992 7.34375 12.4789 7.34375Z" fill="white" stroke="white" stroke-width="0.2"/>
<path d="M5.91638 14.4532C5.73044 14.4532 5.53357 14.3766 5.39138 14.2344L5.15076 13.9938C5.00857 13.8516 4.93201 13.6657 4.93201 13.4688C4.93201 13.2719 5.00857 13.086 5.15076 12.9438L7.68826 10.4063C7.98357 10.111 8.45388 10.111 8.74919 10.4063L8.98982 10.6469C9.13201 10.7891 9.20857 10.975 9.20857 11.1719C9.20857 11.3688 9.13201 11.5547 8.98982 11.6969L6.44138 14.2344C6.29919 14.3766 6.10232 14.4532 5.91638 14.4532ZM8.21326 10.625C8.13669 10.625 8.06013 10.6579 7.99451 10.7125L5.45701 13.25C5.40232 13.3047 5.36951 13.3813 5.36951 13.4688C5.36951 13.5563 5.40232 13.6329 5.45701 13.6875L5.69763 13.9282C5.81794 14.0485 6.01482 14.0485 6.13513 13.9282L8.67263 11.3907C8.72732 11.336 8.76013 11.2594 8.76013 11.1719C8.76013 11.0844 8.72732 11.0079 8.67263 10.9532L8.43201 10.7125C8.36638 10.6579 8.28982 10.625 8.21326 10.625Z" fill="white" stroke="white" stroke-width="0.2"/>
<path d="M17.0727 14.4531C16.8758 14.4531 16.6899 14.3766 16.5477 14.2344L14.0102 11.6969C13.7149 11.4016 13.7149 10.9312 14.0102 10.6359L14.2508 10.3953C14.5461 10.1 15.0164 10.1 15.3117 10.3953L17.8492 12.9328C17.9914 13.075 18.068 13.2609 18.068 13.4578C18.068 13.6547 17.9914 13.8406 17.8492 13.9828L17.6086 14.2234C17.4555 14.3766 17.2696 14.4531 17.0727 14.4531ZM14.7758 10.625C14.6992 10.625 14.6227 10.6578 14.5571 10.7125L14.3164 10.9531C14.1961 11.0734 14.1961 11.2703 14.3164 11.3906L16.8539 13.9281C16.9742 14.0484 17.1711 14.0484 17.2914 13.9281L17.5321 13.6875C17.5867 13.6328 17.6196 13.5562 17.6196 13.4687C17.6196 13.3812 17.5867 13.3047 17.5321 13.25L14.9946 10.7125C14.9289 10.6578 14.8524 10.625 14.7758 10.625Z" fill="white" stroke="white" stroke-width="0.2"/>
<path d="M7.44763 15.3281C7.39294 15.3281 7.33826 15.3062 7.29451 15.2625L6.20076 14.1688C6.11326 14.0813 6.11326 13.95 6.20076 13.8625C6.28826 13.775 6.41951 13.775 6.50701 13.8625L7.60076 14.9563C7.68826 15.0438 7.68826 15.175 7.60076 15.2625C7.55701 15.3062 7.50232 15.3281 7.44763 15.3281Z" fill="white" stroke="white" stroke-width="0.2"/>
<path d="M12.1289 18.4999C11.9429 18.4999 11.7789 18.4343 11.6476 18.303L10.9039 17.5593C10.8164 17.4718 10.8164 17.3405 10.9039 17.253C10.9914 17.1655 11.1226 17.1655 11.2101 17.253L11.9539 17.9968C12.0414 18.0843 12.2054 18.0843 12.2929 17.9968L12.4023 17.8874C12.4461 17.8437 12.4789 17.778 12.4789 17.7124C12.4789 17.6468 12.457 17.5812 12.4023 17.5374L11.9101 17.0452C11.8226 16.9577 11.8226 16.8265 11.9101 16.739C11.9976 16.6515 12.1289 16.6515 12.2164 16.739L12.7086 17.2312C12.8398 17.3624 12.9054 17.5265 12.9054 17.7124C12.9054 17.8983 12.8398 18.0624 12.7086 18.1937L12.5992 18.303C12.4789 18.4343 12.3039 18.4999 12.1289 18.4999Z" fill="white" stroke="white" stroke-width="0.2"/>
<path d="M13.6601 18.5C13.4742 18.5 13.3101 18.4344 13.1789 18.3031L11.0679 16.1922C10.9804 16.1047 10.9804 15.9734 11.0679 15.8859C11.1554 15.7984 11.2867 15.7984 11.3742 15.8859L13.4851 17.9969C13.5726 18.0844 13.7367 18.0844 13.8242 17.9969L13.9336 17.8875C13.9773 17.8437 14.0101 17.7781 14.0101 17.7125C14.0101 17.6469 13.9883 17.5812 13.9336 17.5375L11.7133 15.3172C11.6258 15.2297 11.6258 15.0984 11.7133 15.0109C11.8008 14.9234 11.932 14.9234 12.0195 15.0109L14.2398 17.2312C14.3711 17.3625 14.4367 17.5266 14.4367 17.7125C14.4367 17.8984 14.3711 18.0625 14.2398 18.1937L14.1304 18.3031C14.0101 18.4344 13.8351 18.5 13.6601 18.5Z" fill="white" stroke="white" stroke-width="0.2"/>
<path d="M14.207 17.5155C14.0211 17.5155 13.857 17.4499 13.7258 17.3187C13.6383 17.2312 13.6383 17.0999 13.7258 17.0124C13.8133 16.9249 13.9445 16.9249 14.032 17.0124C14.1195 17.0999 14.2836 17.0999 14.3711 17.0124L14.4805 16.903C14.5242 16.8593 14.557 16.7937 14.557 16.728C14.557 16.6624 14.5352 16.5968 14.4805 16.553L13.9883 16.0608C13.9008 15.9733 13.9008 15.8421 13.9883 15.7546C14.0758 15.6671 14.207 15.6671 14.2945 15.7546L14.7867 16.2468C14.918 16.378 14.9836 16.5421 14.9836 16.728C14.9836 16.914 14.918 17.078 14.7867 17.2093L14.6773 17.3187C14.557 17.4499 14.382 17.5155 14.207 17.5155Z" fill="white" stroke="white" stroke-width="0.2"/>
<path d="M9.55862 17.7344C9.37268 17.7344 9.20862 17.6688 9.07737 17.5375L8.96799 17.4282C8.83674 17.2969 8.77112 17.1329 8.77112 16.9469C8.77112 16.761 8.83674 16.5969 8.96799 16.4657L9.46018 15.9735C9.72268 15.711 10.1602 15.711 10.4227 15.9735L10.5321 16.0829C10.6633 16.2141 10.7289 16.3782 10.7289 16.5641C10.7289 16.75 10.6633 16.9141 10.5321 17.0454L10.0399 17.5375C9.90862 17.6688 9.73362 17.7344 9.55862 17.7344ZM9.94143 16.2032C9.87581 16.2032 9.82112 16.2251 9.76643 16.2688L9.27424 16.761C9.23049 16.8047 9.19768 16.8704 9.19768 16.936C9.19768 17.0016 9.21956 17.0672 9.27424 17.111L9.38362 17.2204C9.47112 17.3079 9.63518 17.3079 9.72268 17.2204L10.2149 16.7282C10.2586 16.6844 10.2914 16.6188 10.2914 16.5532C10.2914 16.4875 10.2696 16.4219 10.2149 16.3782L10.1055 16.2688C10.0617 16.2251 9.99612 16.2032 9.94143 16.2032Z" fill="white" stroke="white" stroke-width="0.2"/>
<path d="M8.79299 16.9688C8.60706 16.9688 8.44299 16.9032 8.31174 16.7719L8.20237 16.6625C8.07112 16.5313 8.00549 16.3672 8.00549 16.1813C8.00549 15.9954 8.07112 15.8313 8.20237 15.7L8.91331 14.9891C9.17581 14.7266 9.61331 14.7266 9.87581 14.9891L9.98518 15.0985C10.1164 15.2297 10.1821 15.3938 10.1821 15.5797C10.1821 15.7657 10.1164 15.9297 9.98518 16.061L9.27424 16.7719C9.14299 16.9032 8.96799 16.9688 8.79299 16.9688ZM9.39456 15.2188C9.32893 15.2188 9.27424 15.2407 9.21956 15.2844L8.50862 15.9954C8.46487 16.0391 8.43206 16.1047 8.43206 16.1704C8.43206 16.236 8.45393 16.3016 8.50862 16.3454L8.61799 16.4547C8.70549 16.5422 8.86956 16.5422 8.95706 16.4547L9.66799 15.7438C9.71174 15.7 9.74456 15.6344 9.74456 15.5688C9.74456 15.5032 9.72268 15.4376 9.66799 15.3938L9.55862 15.2844C9.51487 15.2407 9.44924 15.2188 9.39456 15.2188Z" fill="white" stroke="white" stroke-width="0.2"/>
<path d="M8.02737 16.2032C7.84143 16.2032 7.67737 16.1375 7.54612 16.0063L7.43674 15.8969C7.30549 15.7657 7.23987 15.6016 7.23987 15.4157C7.23987 15.2297 7.30549 15.0657 7.43674 14.9344L7.92893 14.4422C8.19143 14.1797 8.62893 14.1797 8.89143 14.4422L9.00081 14.5516C9.13206 14.6829 9.19768 14.8469 9.19768 15.0329C9.19768 15.2188 9.13206 15.3829 9.00081 15.5141L8.50862 16.0063C8.37737 16.1375 8.20237 16.2032 8.02737 16.2032ZM8.41018 14.6719C8.34456 14.6719 8.28987 14.6938 8.23518 14.7375L7.74299 15.2297C7.69924 15.2735 7.66643 15.3391 7.66643 15.4047C7.66643 15.4704 7.68831 15.536 7.74299 15.5797L7.85237 15.6891C7.93987 15.7766 8.10393 15.7766 8.19143 15.6891L8.68362 15.1969C8.72737 15.1532 8.76018 15.0875 8.76018 15.0219C8.76018 14.9563 8.73831 14.8907 8.68362 14.8469L8.57424 14.7375C8.53049 14.6938 8.46487 14.6719 8.41018 14.6719Z" fill="white" stroke="white" stroke-width="0.2"/>
<path d="M10.3242 18.5C10.1383 18.5 9.97424 18.4344 9.84299 18.3032L9.73362 18.1938C9.60237 18.0625 9.53674 17.8985 9.53674 17.7125C9.53674 17.5266 9.60237 17.3625 9.73362 17.2313L10.0071 16.9579C10.2696 16.6954 10.7071 16.6954 10.9696 16.9579L11.0789 17.0672C11.2102 17.1985 11.2758 17.3625 11.2758 17.5485C11.2758 17.7344 11.2102 17.8985 11.0789 18.0297L10.8055 18.3032C10.6742 18.4344 10.4992 18.5 10.3242 18.5ZM10.4883 17.1875C10.4227 17.1875 10.368 17.2094 10.3133 17.2532L10.0399 17.5266C9.99612 17.5704 9.96331 17.636 9.96331 17.7016C9.96331 17.7672 9.98518 17.8329 10.0399 17.8766L10.1492 17.986C10.2367 18.0735 10.4008 18.0735 10.4883 17.986L10.7617 17.7125C10.8055 17.6688 10.8383 17.6032 10.8383 17.5375C10.8383 17.4719 10.8164 17.4063 10.7617 17.3626L10.6524 17.2532C10.6086 17.2094 10.543 17.1875 10.4883 17.1875Z" fill="white" stroke="white" stroke-width="0.2"/>
<path d="M14.1414 16.1156C14.0867 16.1156 14.0321 16.0938 13.9883 16.05L12.2164 14.2781C12.118 14.1797 11.9758 14.1141 11.8336 14.1141H11.3742C11.2321 14.1141 11.0899 14.1688 10.9914 14.2781L10.6961 14.5734C10.5649 14.7047 10.4008 14.7703 10.2149 14.7703C10.0289 14.7703 9.86487 14.7047 9.73362 14.5734L9.51487 14.3547C9.38362 14.2234 9.31799 14.0594 9.31799 13.8734C9.31799 13.6875 9.38362 13.5234 9.51487 13.3922L9.93049 12.9766C10.1821 12.725 10.5102 12.5938 10.8602 12.5938H12.1289C12.6539 12.5938 13.1461 12.3859 13.518 12.0141L14.0758 11.4562C14.1633 11.3688 14.2946 11.3688 14.3821 11.4562C14.4696 11.5437 14.4696 11.675 14.3821 11.7625L13.8242 12.3203C13.3649 12.7797 12.7633 13.0203 12.118 13.0203H10.8492C10.6196 13.0203 10.4008 13.1078 10.2258 13.2719L9.81018 13.6875C9.76643 13.7313 9.73362 13.7969 9.73362 13.8625C9.73362 13.9281 9.75549 13.9937 9.81018 14.0375L10.0289 14.2562C10.1164 14.3437 10.2805 14.3437 10.368 14.2562L10.6633 13.9609C10.8492 13.775 11.1008 13.6766 11.3633 13.6766H11.8227C12.0852 13.6766 12.3367 13.775 12.5227 13.9609L14.2946 15.7328C14.3821 15.8203 14.3821 15.9516 14.2946 16.0391C14.2617 16.0937 14.1961 16.1156 14.1414 16.1156Z" fill="white" stroke="white" stroke-width="0.2"/>
<path d="M14.5023 16.3672C14.4476 16.3672 14.3929 16.3453 14.3492 16.3016C14.2617 16.2141 14.2617 16.0828 14.3492 15.9953L16.482 13.8625C16.5695 13.775 16.7008 13.775 16.7883 13.8625C16.8758 13.95 16.8758 14.0813 16.7883 14.1688L14.6554 16.3016C14.6117 16.3453 14.557 16.3672 14.5023 16.3672Z" fill="white" stroke="white" stroke-width="0.2"/>
<path d="M10.8383 13.0313H10.5976C10.1273 13.0313 9.68982 12.8453 9.36169 12.5172L8.60701 11.7625C8.51951 11.675 8.51951 11.5438 8.60701 11.4563C8.69451 11.3688 8.82576 11.3688 8.91326 11.4563L9.66794 12.2109C9.91951 12.4625 10.2476 12.5938 10.5976 12.5938H10.8383C10.9586 12.5938 11.057 12.6922 11.057 12.8125C11.057 12.9328 10.9586 13.0313 10.8383 13.0313Z" fill="white" stroke="white" stroke-width="0.2"/>
<defs>
<linearGradient id="paint0_linear_175_6734" x1="11.5" y1="0" x2="11.5" y2="23" gradientUnits="userSpaceOnUse">
<stop stop-color="#1249EC" stop-opacity="0.13"/>
<stop offset="1" stop-color="#2C3546" stop-opacity="0.31"/>
</linearGradient>
</defs>
</svg>
