<svg width="23" height="23" viewBox="0 0 23 23" fill="none" xmlns="http://www.w3.org/2000/svg">
<rect width="23" height="23" rx="4" fill="url(#paint0_linear_175_6777)"/>
<path fill-rule="evenodd" clip-rule="evenodd" d="M11.0413 4.94263C7.43122 4.94262 4.5 7.88201 4.5 11.5C4.5 15.118 7.43122 18.0573 11.0413 18.0573C14.0362 18.0573 16.6516 16.0154 17.3847 13.1053C17.3925 13.0744 17.3941 13.0423 17.3895 13.0108C17.3848 12.9793 17.374 12.949 17.3576 12.9217C17.3412 12.8944 17.3196 12.8706 17.294 12.8517C17.2684 12.8328 17.2393 12.8192 17.2083 12.8116C17.1462 12.7962 17.0805 12.8061 17.0257 12.8392C16.9708 12.8722 16.9314 12.9257 16.916 12.9879C16.2363 15.6864 13.817 17.5741 11.0413 17.5741C7.69277 17.5741 4.98276 14.8577 4.98276 11.5C4.98276 8.14228 7.69277 5.42586 11.0413 5.42586C13.6767 5.42586 15.9901 7.1287 16.7991 9.61043L14.9506 8.82924C14.8917 8.80459 14.8255 8.80424 14.7664 8.82827C14.7073 8.8523 14.6601 8.89875 14.6352 8.95747C14.6228 8.98669 14.6162 9.01807 14.6159 9.04982C14.6157 9.08156 14.6217 9.11305 14.6336 9.14248C14.6455 9.17191 14.6631 9.1987 14.6854 9.22132C14.7076 9.24393 14.7342 9.26193 14.7634 9.27428L17.1513 10.2832C17.2101 10.3078 17.2763 10.3082 17.3354 10.2841C17.3945 10.2601 17.4417 10.2137 17.4667 10.1549L18.4803 7.76518C18.4928 7.73605 18.4995 7.70474 18.5 7.67303C18.5004 7.64131 18.4946 7.60982 18.4829 7.58036C18.4711 7.55089 18.4537 7.52403 18.4316 7.5013C18.4095 7.47857 18.3831 7.46042 18.3539 7.4479C18.3247 7.43542 18.2932 7.42885 18.2614 7.42856C18.2296 7.42828 18.198 7.4343 18.1685 7.44626C18.139 7.45822 18.1122 7.47589 18.0896 7.49826C18.067 7.52063 18.049 7.54726 18.0367 7.5766L17.2498 9.43269C16.3689 6.77057 13.8753 4.94263 11.0413 4.94263ZM10.9164 7.60112C10.0161 7.60112 9.2932 8.35775 9.2932 9.27806V10.1813H8.66052C8.5965 10.1816 8.53521 10.2073 8.49012 10.2527C8.44503 10.2982 8.41984 10.3597 8.42008 10.4237V14.2457C8.42021 14.3095 8.44557 14.3706 8.49062 14.4157C8.53567 14.4609 8.59675 14.4863 8.66052 14.4866H13.2312C13.295 14.4863 13.3561 14.4609 13.4011 14.4157C13.4462 14.3706 13.4715 14.3095 13.4716 14.2457V10.4237C13.4719 10.3597 13.4467 10.2982 13.4016 10.2527C13.3565 10.2073 13.2952 10.1816 13.2312 10.1813H12.5401L12.5415 9.27806C12.5415 8.35775 11.8167 7.60112 10.9164 7.60112ZM10.9164 8.08246C11.5475 8.08246 12.0587 8.60711 12.0587 9.27806V10.1813H9.77597V9.27806C9.77597 8.60711 10.2853 8.08246 10.9164 8.08246ZM8.90284 10.6641H12.9889V14.0034H8.90284V10.6641Z" fill="white" stroke="white" stroke-width="0.2"/>
<defs>
<linearGradient id="paint0_linear_175_6777" x1="11.5" y1="0" x2="11.5" y2="23" gradientUnits="userSpaceOnUse">
<stop stop-color="#1249EC" stop-opacity="0.13"/>
<stop offset="1" stop-color="#2C3546" stop-opacity="0.31"/>
</linearGradient>
</defs>
</svg>
