<svg width="16" height="17" viewBox="0 0 16 17" fill="none" xmlns="http://www.w3.org/2000/svg">
<g clip-path="url(#clip0_260_162)">
<path d="M11 6.9366L5 3.4766M2.18 5.30994L8 8.6766L13.82 5.30994M8 15.3899V8.66994M14 11.3366V6.00327C13.9998 5.76945 13.938 5.53981 13.821 5.33738C13.704 5.13495 13.5358 4.96685 13.3333 4.84994L8.66667 2.18327C8.46397 2.06625 8.23405 2.00464 8 2.00464C7.76595 2.00464 7.53603 2.06625 7.33333 2.18327L2.66667 4.84994C2.46417 4.96685 2.29599 5.13495 2.17897 5.33738C2.06196 5.53981 2.00024 5.76945 2 6.00327V11.3366C2.00024 11.5704 2.06196 11.8001 2.17897 12.0025C2.29599 12.2049 2.46417 12.373 2.66667 12.4899L7.33333 15.1566C7.53603 15.2736 7.76595 15.3352 8 15.3352C8.23405 15.3352 8.46397 15.2736 8.66667 15.1566L13.3333 12.4899C13.5358 12.373 13.704 12.2049 13.821 12.0025C13.938 11.8001 13.9998 11.5704 14 11.3366Z" stroke="#D9D9D9" stroke-width="1.6" stroke-linecap="round" stroke-linejoin="round"/>
</g>
<defs>
<clipPath id="clip0_260_162">
<rect width="16" height="16" fill="white" transform="translate(0 0.669922)"/>
</clipPath>
</defs>
</svg>
