<svg width="17" height="17" viewBox="0 0 17 17" fill="none" xmlns="http://www.w3.org/2000/svg">
<path d="M8.0066 2.19626C8.03581 2.13723 8.08094 2.08755 8.1369 2.05281C8.19285 2.01807 8.2574 1.99966 8.32326 1.99966C8.38912 1.99966 8.45367 2.01807 8.50963 2.05281C8.56558 2.08755 8.61071 2.13723 8.63993 2.19626L10.1799 5.31559C10.2814 5.52091 10.4311 5.69853 10.6163 5.83323C10.8016 5.96793 11.0167 6.05567 11.2433 6.08893L14.6873 6.59293C14.7525 6.60238 14.8138 6.62991 14.8643 6.67239C14.9147 6.71488 14.9522 6.77063 14.9726 6.83333C14.993 6.89604 14.9954 6.9632 14.9797 7.02722C14.9639 7.09124 14.9305 7.14956 14.8833 7.19559L12.3926 9.62093C12.2283 9.78099 12.1054 9.97858 12.0345 10.1967C11.9635 10.4148 11.9466 10.6469 11.9853 10.8729L12.5733 14.2996C12.5848 14.3648 12.5777 14.432 12.5529 14.4934C12.5281 14.5548 12.4865 14.608 12.433 14.6469C12.3794 14.6858 12.3159 14.7089 12.2498 14.7135C12.1838 14.7181 12.1177 14.7041 12.0593 14.6729L8.9806 13.0543C8.77774 12.9477 8.55205 12.8921 8.32293 12.8921C8.09381 12.8921 7.86812 12.9477 7.66526 13.0543L4.58726 14.6729C4.52882 14.7039 4.46286 14.7178 4.3969 14.7131C4.33093 14.7084 4.26761 14.6853 4.21413 14.6464C4.16064 14.6075 4.11915 14.5544 4.09437 14.4931C4.06958 14.4318 4.0625 14.3647 4.07393 14.2996L4.66126 10.8736C4.70006 10.6474 4.68325 10.4152 4.61229 10.197C4.54132 9.97872 4.41833 9.78103 4.25393 9.62093L1.76326 7.19626C1.71566 7.15028 1.68192 7.09186 1.6659 7.02764C1.64988 6.96343 1.65222 6.89601 1.67265 6.83305C1.69308 6.7701 1.73077 6.71415 1.78145 6.67158C1.83212 6.62901 1.89373 6.60153 1.95926 6.59226L5.4026 6.08893C5.62943 6.05593 5.84485 5.9683 6.03032 5.83358C6.21578 5.69887 6.36573 5.52111 6.46726 5.31559L8.0066 2.19626Z" stroke="#156BF4" stroke-width="1.33333" stroke-linecap="round" stroke-linejoin="round"/>
</svg>
