<svg version="1.1" id="Layer_1" xmlns="http://www.w3.org/2000/svg" xmlns:xlink="http://www.w3.org/1999/xlink" x="0px" y="0px"
	 width="100%" viewBox="0 0 512 512" enable-background="new 0 0 512 512" xml:space="preserve">
<path fill="#000000" opacity="1.000000" stroke="none" 
	d="
M1.000000,238.000000 
	C1.000000,159.035736 1.000000,80.071480 1.000000,1.053609 
	C171.553696,1.053609 342.107422,1.053609 513.000000,1.053609 
	C513.000000,72.354408 513.000000,143.709351 512.747681,215.847290 
	C505.168854,205.966690 494.510590,204.676605 482.854034,205.969864 
	C480.224945,206.261566 477.479126,206.365219 474.884857,205.947754 
	C466.545959,204.605881 460.455994,207.706558 455.141113,214.098831 
	C452.457733,217.326202 450.858978,220.125732 450.899170,224.458206 
	C451.115082,247.744049 451.192535,271.035797 450.846375,294.318512 
	C450.773621,299.211273 452.512115,302.315613 455.797211,305.372772 
	C460.746948,309.979126 465.856049,313.170288 473.207825,312.152191 
	C478.757019,311.383728 484.551392,311.509155 490.140930,312.116882 
	C498.222443,312.995575 504.665009,310.987640 509.450531,304.171539 
	C510.181580,303.130280 511.794800,302.708344 513.000000,302.000000 
	C513.000000,372.302460 513.000000,442.604950 513.000000,512.953735 
	C342.439056,512.953735 171.878128,512.953735 1.000000,512.953735 
	C1.000000,423.312164 1.000000,333.623932 1.254278,243.155060 
	C2.501297,243.251495 3.603502,244.032547 4.469922,245.020401 
	C13.573271,255.399704 22.753767,265.714722 31.679340,276.245544 
	C39.078735,284.975677 46.134411,293.996399 53.418198,302.825836 
	C54.788769,304.487274 56.516548,305.854034 58.079498,307.356750 
	C58.597198,306.993958 59.114899,306.631195 59.632599,306.268402 
	C51.754509,289.347656 43.876419,272.426910 35.762691,255.000076 
	C45.771069,255.000076 55.233688,255.112320 64.689728,254.912827 
	C66.779114,254.868774 68.845222,253.721405 70.922043,253.082077 
	C70.213898,251.153702 69.854980,248.990936 68.742744,247.333771 
	C59.238174,233.172363 49.671143,219.050751 39.891949,205.078812 
	C38.810852,203.534225 36.318481,202.222382 34.420898,202.137451 
	C26.936064,201.802475 19.427176,201.971695 11.927781,202.028839 
	C10.717064,202.038071 9.509246,202.427856 7.782780,202.733215 
	C15.862733,214.649094 23.542789,225.975235 31.696573,238.000000 
	C20.767157,238.000000 10.883578,238.000000 1.000000,238.000000 
M362.468903,206.089203 
	C362.371033,206.386841 362.273163,206.684479 362.016998,207.778244 
	C361.045074,211.620331 364.005280,213.362900 366.112854,215.623550 
	C368.034210,217.684433 370.402191,219.644150 371.477173,222.123688 
	C375.826538,232.156006 379.744995,242.374878 383.838776,252.518326 
	C385.563019,256.790588 386.005981,260.602753 383.594666,265.215393 
	C379.662140,272.737976 377.092407,280.959686 373.613342,288.736877 
	C370.808746,295.006409 368.840302,301.859467 362.098389,305.673035 
	C360.615143,306.512054 360.245911,309.320435 359.003387,311.998566 
	C369.404114,311.998566 378.543396,312.096069 387.674835,311.872620 
	C388.790863,311.845276 390.485046,310.294098 390.861603,309.114105 
	C394.387878,298.063660 397.685089,286.940125 400.618896,277.256104 
	C403.874420,287.899323 407.564545,299.963440 411.195740,311.834839 
	C421.405029,311.834839 431.036499,311.834839 440.643616,311.834839 
	C442.213989,307.143036 438.742920,305.351654 436.103302,302.961517 
	C434.505310,301.514618 432.913269,299.789703 432.036835,297.862976 
	C427.572632,288.048645 423.535767,278.037231 418.960876,268.276886 
	C416.060486,262.088898 414.702423,256.371887 418.401306,249.878403 
	C420.918793,245.458893 421.909271,240.193665 424.200592,235.615936 
	C428.333069,227.359756 429.152405,216.960587 439.018280,212.196457 
	C439.855743,211.792053 440.060150,209.153946 439.768372,207.713593 
	C439.616943,206.966095 437.744263,206.113007 436.632050,206.088654 
	C429.807343,205.939240 422.959015,206.320236 416.156372,205.904877 
	C411.614655,205.627563 409.965271,207.338348 408.887756,211.583130 
	C406.345276,221.598999 403.193085,231.460098 400.628632,240.218689 
	C397.582947,229.514984 394.248199,217.795547 390.944061,206.183609 
	C381.276703,206.183609 372.132507,206.183609 362.468903,206.089203 
M179.502090,206.012650 
	C177.503754,206.012650 175.505432,206.012070 173.507095,206.012772 
	C167.002579,206.015045 167.000778,206.015213 167.000565,212.563156 
	C166.999771,237.209366 167.000244,261.855560 167.000244,286.501770 
	C167.000244,288.263519 167.000244,290.025269 167.000244,291.683380 
	C161.321930,291.683380 156.255997,291.683380 150.785736,291.683380 
	C150.785736,262.982117 150.785736,234.596207 150.785736,206.282745 
	C139.951462,206.282745 129.532410,206.282745 119.226440,206.282745 
	C118.512817,209.898499 119.009552,212.604446 122.601257,214.174347 
	C127.535538,216.331070 128.185715,220.415863 128.117874,225.460709 
	C127.838036,246.273010 128.584045,267.114899 127.741058,287.896759 
	C127.351593,297.498230 129.953659,304.533539 137.522690,309.935364 
	C138.878601,310.903015 140.615295,311.887360 142.189987,311.910187 
	C153.678040,312.076996 165.169815,312.030670 176.659729,311.951782 
	C177.785507,311.944061 179.187012,311.566437 179.976959,310.836853 
	C182.274017,308.715424 184.132812,306.096924 186.522964,304.104614 
	C189.341629,301.755096 190.098083,299.062256 190.079651,295.471802 
	C189.935989,267.495758 190.000229,239.518661 190.000229,211.541885 
	C190.000229,209.778061 190.000229,208.014236 190.000229,206.012650 
	C186.430878,206.012650 183.456116,206.012650 179.502090,206.012650 
M324.500000,206.999908 
	C310.743408,206.999908 296.986816,206.999908 283.295074,206.999908 
	C283.295074,242.316177 283.295074,277.036652 283.295074,311.756287 
	C305.682861,311.756287 327.774994,311.756287 350.864868,311.756287 
	C349.786804,308.895081 349.118042,306.470703 347.993469,304.280426 
	C346.081757,300.557281 343.722382,297.061310 341.860840,293.315948 
	C340.596802,290.772736 339.000000,289.863373 336.113647,289.923798 
	C326.514832,290.124725 316.909210,289.999756 307.272095,289.999756 
	C307.272095,282.080536 307.272095,274.681702 307.272095,266.859192 
	C316.941132,266.859192 326.345978,266.859192 335.700653,266.859192 
	C335.700653,260.026703 335.700653,253.626572 335.700653,246.807739 
	C326.002136,246.807739 316.596771,246.807739 306.971161,246.807739 
	C306.971161,241.752014 306.971161,237.122147 306.971161,232.550369 
	C303.306610,231.549805 299.861053,230.609055 296.415497,229.668289 
	C309.392365,228.998657 322.214996,229.088043 335.033600,228.900574 
	C336.917938,228.873016 339.499603,228.066422 340.522827,226.696960 
	C343.598419,222.580627 346.225586,218.096115 348.685638,213.569351 
	C349.665497,211.766281 349.748657,209.475891 350.336823,206.999908 
	C341.461853,206.999908 333.480927,206.999908 324.500000,206.999908 
M238.499939,206.012650 
	C227.336151,206.012650 216.171066,205.929108 205.009979,206.103119 
	C203.343231,206.129089 200.907272,206.911865 200.204224,208.135651 
	C198.779022,210.616440 200.976013,212.189713 202.969620,213.423340 
	C203.371506,213.672028 203.846573,213.800308 204.257584,214.036789 
	C208.544769,216.503387 210.245438,219.772568 210.171631,225.133453 
	C209.797821,252.288040 209.999542,279.450531 209.999542,306.610260 
	C209.999542,308.361938 209.999542,310.113617 209.999542,311.640778 
	C218.095291,311.640778 225.499603,311.640778 233.316956,311.640778 
	C233.316956,299.545105 233.316956,287.806488 233.316956,275.999359 
	C238.578247,275.999359 243.480652,275.470856 248.224472,276.113342 
	C257.118225,277.317902 263.688324,274.350281 269.323151,267.444946 
	C271.800232,264.409363 273.177795,261.814178 273.087891,257.873505 
	C272.833466,246.715500 272.853760,235.545029 273.075195,224.385605 
	C273.155853,220.320053 271.801178,217.567169 269.174713,214.367905 
	C263.597565,207.574463 257.155731,204.619583 248.486710,205.941849 
	C245.555664,206.388901 242.499054,206.012650 238.499939,206.012650 
M88.084602,311.997894 
	C98.656319,311.997894 109.228043,311.997894 120.926743,311.997894 
	C112.866219,300.238251 105.435844,289.397949 98.240921,278.901123 
	C101.561806,276.421539 104.833275,274.498352 107.461128,271.919373 
	C115.354126,264.173126 118.435760,254.561325 118.044655,243.566986 
	C117.517677,228.753082 110.988068,217.831772 97.801041,210.980728 
	C81.330467,202.423828 63.605091,205.633209 44.861023,204.912994 
	C50.875229,213.625473 56.090790,221.342407 61.554558,228.879410 
	C62.193794,229.761200 64.184746,229.762741 65.579041,229.978455 
	C69.418373,230.572418 73.340958,230.777725 77.106110,231.665054 
	C82.188629,232.862869 85.267181,236.543549 85.880707,241.556427 
	C86.543396,246.970901 86.795509,253.122467 81.135040,256.053253 
	C76.841988,258.276031 71.700859,259.417480 66.832771,259.841156 
	C59.736485,260.458710 52.546513,259.999756 44.718555,259.999756 
	C45.250816,262.061096 45.436741,263.796478 46.135105,265.292694 
	C48.118668,269.542297 50.969894,273.502899 52.257244,277.932495 
	C53.911121,283.623291 57.382660,284.948364 62.407909,283.953400 
	C66.755417,283.092529 68.876709,285.553497 70.994568,288.669983 
	C76.315163,296.499390 81.796883,304.219299 88.084602,311.997894 
z"/>
<path fill="#CFD6E2" opacity="1.000000" stroke="none" 
	d="
M513.000000,301.531342 
	C511.794800,302.708344 510.181580,303.130280 509.450531,304.171539 
	C504.665009,310.987640 498.222443,312.995575 490.140930,312.116882 
	C484.551392,311.509155 478.757019,311.383728 473.207825,312.152191 
	C465.856049,313.170288 460.746948,309.979126 455.797211,305.372772 
	C452.512115,302.315613 450.773621,299.211273 450.846375,294.318512 
	C451.192535,271.035797 451.115082,247.744049 450.899170,224.458206 
	C450.858978,220.125732 452.457733,217.326202 455.141113,214.098831 
	C460.455994,207.706558 466.545959,204.605881 474.884857,205.947754 
	C477.479126,206.365219 480.224945,206.261566 482.854034,205.969864 
	C494.510590,204.676605 505.168854,205.966690 512.747681,216.315155 
	C513.000000,244.354233 513.000000,272.708466 513.000000,301.531342 
M467.607117,226.000122 
	C464.939423,226.000122 462.271729,226.000122 458.757355,226.000122 
	C464.407837,228.764130 469.134491,231.076248 474.174744,233.541748 
	C474.174744,252.894302 474.174744,272.303375 474.174744,291.721222 
	C479.606354,291.721222 484.670563,291.721222 489.731720,291.721222 
	C489.731720,269.724548 489.731720,248.008514 489.731720,226.000122 
	C482.503448,226.000122 475.540863,226.000122 467.607117,226.000122 
z"/>
<path fill="#FFBA24" opacity="1.000000" stroke="none" 
	d="
M1.000000,238.416656 
	C10.883578,238.000000 20.767157,238.000000 31.696573,238.000000 
	C23.542789,225.975235 15.862733,214.649094 7.782780,202.733215 
	C9.509246,202.427856 10.717064,202.038071 11.927781,202.028839 
	C19.427176,201.971695 26.936064,201.802475 34.420898,202.137451 
	C36.318481,202.222382 38.810852,203.534225 39.891949,205.078812 
	C49.671143,219.050751 59.238174,233.172363 68.742744,247.333771 
	C69.854980,248.990936 70.213898,251.153702 70.922043,253.082077 
	C68.845222,253.721405 66.779114,254.868774 64.689728,254.912827 
	C55.233688,255.112320 45.771069,255.000076 35.762691,255.000076 
	C43.876419,272.426910 51.754509,289.347656 59.632599,306.268402 
	C59.114899,306.631195 58.597198,306.993958 58.079498,307.356750 
	C56.516548,305.854034 54.788769,304.487274 53.418198,302.825836 
	C46.134411,293.996399 39.078735,284.975677 31.679340,276.245544 
	C22.753767,265.714722 13.573271,255.399704 4.469922,245.020401 
	C3.603502,244.032547 2.501297,243.251495 1.254278,242.687225 
	C1.000000,241.611115 1.000000,240.222214 1.000000,238.416656 
z"/>
<path fill="#CFD6E2" opacity="1.000000" stroke="none" 
	d="
M179.991730,206.012650 
	C183.456116,206.012650 186.430878,206.012650 190.000229,206.012650 
	C190.000229,208.014236 190.000229,209.778061 190.000229,211.541885 
	C190.000229,239.518661 189.935989,267.495758 190.079651,295.471802 
	C190.098083,299.062256 189.341629,301.755096 186.522964,304.104614 
	C184.132812,306.096924 182.274017,308.715424 179.976959,310.836853 
	C179.187012,311.566437 177.785507,311.944061 176.659729,311.951782 
	C165.169815,312.030670 153.678040,312.076996 142.189987,311.910187 
	C140.615295,311.887360 138.878601,310.903015 137.522690,309.935364 
	C129.953659,304.533539 127.351593,297.498230 127.741058,287.896759 
	C128.584045,267.114899 127.838036,246.273010 128.117874,225.460709 
	C128.185715,220.415863 127.535538,216.331070 122.601257,214.174347 
	C119.009552,212.604446 118.512817,209.898499 119.226440,206.282745 
	C129.532410,206.282745 139.951462,206.282745 150.785736,206.282745 
	C150.785736,234.596207 150.785736,262.982117 150.785736,291.683380 
	C156.255997,291.683380 161.321930,291.683380 167.000244,291.683380 
	C167.000244,290.025269 167.000244,288.263519 167.000244,286.501770 
	C167.000244,261.855560 166.999771,237.209366 167.000565,212.563156 
	C167.000778,206.015213 167.002579,206.015045 173.507095,206.012772 
	C175.505432,206.012070 177.503754,206.012650 179.991730,206.012650 
z"/>
<path fill="#CFD6E2" opacity="1.000000" stroke="none" 
	d="
M362.988342,206.183609 
	C372.132507,206.183609 381.276703,206.183609 390.944061,206.183609 
	C394.248199,217.795547 397.582947,229.514984 400.628632,240.218689 
	C403.193085,231.460098 406.345276,221.598999 408.887756,211.583130 
	C409.965271,207.338348 411.614655,205.627563 416.156372,205.904877 
	C422.959015,206.320236 429.807343,205.939240 436.632050,206.088654 
	C437.744263,206.113007 439.616943,206.966095 439.768372,207.713593 
	C440.060150,209.153946 439.855743,211.792053 439.018280,212.196457 
	C429.152405,216.960587 428.333069,227.359756 424.200592,235.615936 
	C421.909271,240.193665 420.918793,245.458893 418.401306,249.878403 
	C414.702423,256.371887 416.060486,262.088898 418.960876,268.276886 
	C423.535767,278.037231 427.572632,288.048645 432.036835,297.862976 
	C432.913269,299.789703 434.505310,301.514618 436.103302,302.961517 
	C438.742920,305.351654 442.213989,307.143036 440.643616,311.834839 
	C431.036499,311.834839 421.405029,311.834839 411.195740,311.834839 
	C407.564545,299.963440 403.874420,287.899323 400.618896,277.256104 
	C397.685089,286.940125 394.387878,298.063660 390.861603,309.114105 
	C390.485046,310.294098 388.790863,311.845276 387.674835,311.872620 
	C378.543396,312.096069 369.404114,311.998566 359.003387,311.998566 
	C360.245911,309.320435 360.615143,306.512054 362.098389,305.673035 
	C368.840302,301.859467 370.808746,295.006409 373.613342,288.736877 
	C377.092407,280.959686 379.662140,272.737976 383.594666,265.215393 
	C386.005981,260.602753 385.563019,256.790588 383.838776,252.518326 
	C379.744995,242.374878 375.826538,232.156006 371.477173,222.123688 
	C370.402191,219.644150 368.034210,217.684433 366.112854,215.623550 
	C364.005280,213.362900 361.045074,211.620331 362.259247,207.277252 
	C362.705780,206.613190 362.868073,206.415649 362.988342,206.183609 
z"/>
<path fill="#CFD6E2" opacity="1.000000" stroke="none" 
	d="
M325.000000,206.999908 
	C333.480927,206.999908 341.461853,206.999908 350.336823,206.999908 
	C349.748657,209.475891 349.665497,211.766281 348.685638,213.569351 
	C346.225586,218.096115 343.598419,222.580627 340.522827,226.696960 
	C339.499603,228.066422 336.917938,228.873016 335.033600,228.900574 
	C322.214996,229.088043 309.392365,228.998657 296.415497,229.668289 
	C299.861053,230.609055 303.306610,231.549805 306.971161,232.550369 
	C306.971161,237.122147 306.971161,241.752014 306.971161,246.807739 
	C316.596771,246.807739 326.002136,246.807739 335.700653,246.807739 
	C335.700653,253.626572 335.700653,260.026703 335.700653,266.859192 
	C326.345978,266.859192 316.941132,266.859192 307.272095,266.859192 
	C307.272095,274.681702 307.272095,282.080536 307.272095,289.999756 
	C316.909210,289.999756 326.514832,290.124725 336.113647,289.923798 
	C339.000000,289.863373 340.596802,290.772736 341.860840,293.315948 
	C343.722382,297.061310 346.081757,300.557281 347.993469,304.280426 
	C349.118042,306.470703 349.786804,308.895081 350.864868,311.756287 
	C327.774994,311.756287 305.682861,311.756287 283.295074,311.756287 
	C283.295074,277.036652 283.295074,242.316177 283.295074,206.999908 
	C296.986816,206.999908 310.743408,206.999908 325.000000,206.999908 
z"/>
<path fill="#CFD6E2" opacity="1.000000" stroke="none" 
	d="
M238.999878,206.012650 
	C242.499054,206.012650 245.555664,206.388901 248.486710,205.941849 
	C257.155731,204.619583 263.597565,207.574463 269.174713,214.367905 
	C271.801178,217.567169 273.155853,220.320053 273.075195,224.385605 
	C272.853760,235.545029 272.833466,246.715500 273.087891,257.873505 
	C273.177795,261.814178 271.800232,264.409363 269.323151,267.444946 
	C263.688324,274.350281 257.118225,277.317902 248.224472,276.113342 
	C243.480652,275.470856 238.578247,275.999359 233.316956,275.999359 
	C233.316956,287.806488 233.316956,299.545105 233.316956,311.640778 
	C225.499603,311.640778 218.095291,311.640778 209.999542,311.640778 
	C209.999542,310.113617 209.999542,308.361938 209.999542,306.610260 
	C209.999542,279.450531 209.797821,252.288040 210.171631,225.133453 
	C210.245438,219.772568 208.544769,216.503387 204.257584,214.036789 
	C203.846573,213.800308 203.371506,213.672028 202.969620,213.423340 
	C200.976013,212.189713 198.779022,210.616440 200.204224,208.135651 
	C200.907272,206.911865 203.343231,206.129089 205.009979,206.103119 
	C216.171066,205.929108 227.336151,206.012650 238.999878,206.012650 
M240.453064,226.000229 
	C233.196335,226.000229 225.939606,226.000229 217.245010,226.000229 
	C222.297394,227.982925 225.815796,229.513092 229.438019,230.735657 
	C232.110809,231.637741 233.219177,232.989258 233.088150,236.013397 
	C232.803116,242.592438 233.000183,249.192368 233.000183,255.689758 
	C238.667053,255.689758 243.730911,255.689758 248.686371,255.689758 
	C248.686371,245.650421 248.686371,235.923676 248.686371,226.000229 
	C246.060898,226.000229 243.748230,226.000229 240.453064,226.000229 
z"/>
<path fill="#CFD6E2" opacity="1.000000" stroke="none" 
	d="
M87.649307,311.990509 
	C81.796883,304.219299 76.315163,296.499390 70.994568,288.669983 
	C68.876709,285.553497 66.755417,283.092529 62.407909,283.953400 
	C57.382660,284.948364 53.911121,283.623291 52.257244,277.932495 
	C50.969894,273.502899 48.118668,269.542297 46.135105,265.292694 
	C45.436741,263.796478 45.250816,262.061096 44.718555,259.999756 
	C52.546513,259.999756 59.736485,260.458710 66.832771,259.841156 
	C71.700859,259.417480 76.841988,258.276031 81.135040,256.053253 
	C86.795509,253.122467 86.543396,246.970901 85.880707,241.556427 
	C85.267181,236.543549 82.188629,232.862869 77.106110,231.665054 
	C73.340958,230.777725 69.418373,230.572418 65.579041,229.978455 
	C64.184746,229.762741 62.193794,229.761200 61.554558,228.879410 
	C56.090790,221.342407 50.875229,213.625473 44.861023,204.912994 
	C63.605091,205.633209 81.330467,202.423828 97.801041,210.980728 
	C110.988068,217.831772 117.517677,228.753082 118.044655,243.566986 
	C118.435760,254.561325 115.354126,264.173126 107.461128,271.919373 
	C104.833275,274.498352 101.561806,276.421539 98.240921,278.901123 
	C105.435844,289.397949 112.866219,300.238251 120.926743,311.997894 
	C109.228043,311.997894 98.656319,311.997894 87.649307,311.990509 
z"/>
<path fill="#CFD6E2" opacity="1.000000" stroke="none" 
	d="
M362.728638,206.136414 
	C362.868073,206.415649 362.705780,206.613190 362.338409,206.879181 
	C362.273163,206.684479 362.371033,206.386841 362.728638,206.136414 
z"/>
<path fill="#000000" opacity="1.000000" stroke="none" 
	d="
M468.092712,226.000122 
	C475.540863,226.000122 482.503448,226.000122 489.731720,226.000122 
	C489.731720,248.008514 489.731720,269.724548 489.731720,291.721222 
	C484.670563,291.721222 479.606354,291.721222 474.174744,291.721222 
	C474.174744,272.303375 474.174744,252.894302 474.174744,233.541748 
	C469.134491,231.076248 464.407837,228.764130 458.757355,226.000122 
	C462.271729,226.000122 464.939423,226.000122 468.092712,226.000122 
z"/>
<path fill="#000000" opacity="1.000000" stroke="none" 
	d="
M240.944321,226.000229 
	C243.748230,226.000229 246.060898,226.000229 248.686371,226.000229 
	C248.686371,235.923676 248.686371,245.650421 248.686371,255.689758 
	C243.730911,255.689758 238.667053,255.689758 233.000183,255.689758 
	C233.000183,249.192368 232.803116,242.592438 233.088150,236.013397 
	C233.219177,232.989258 232.110809,231.637741 229.438019,230.735657 
	C225.815796,229.513092 222.297394,227.982925 217.245010,226.000229 
	C225.939606,226.000229 233.196335,226.000229 240.944321,226.000229 
z"/>
</svg>